<svg width="68.805908" height="78.167725" viewBox="0 0 68.8059 78.1677" fill="none" xmlns="http://www.w3.org/2000/svg" xmlns:xlink="http://www.w3.org/1999/xlink">
	<desc>
			Created with Pixso.
	</desc>
	<defs/>
	<path id="Path 1" d="M55.5088 16.5812L51.7373 21.4252C57.0833 25.5691 60.7676 31.4915 62.1218 38.1185C63.4763 44.7456 62.4111 51.6385 59.1196 57.5477C55.8279 63.4568 50.5278 67.9908 44.1804 70.3276C37.8328 72.6646 30.8579 72.6494 24.5205 70.2853C18.1831 67.921 12.9028 63.3641 9.63672 57.4409C6.37061 51.5176 5.33521 44.6201 6.71826 37.9989C8.10107 31.3778 11.811 25.4714 17.1748 21.3506C22.5388 17.2299 29.2017 15.1676 35.9556 15.5377L30.6489 21.1046L34.5852 24.8612L42.9619 16.0608L46.7148 12.1194L42.7847 8.37793L33.9907 0L30.2354 3.94128L35.9631 9.39758C27.1777 8.99756 18.5728 11.9777 11.9165 17.7256C5.26025 23.4735 1.05835 31.5527 0.174316 40.3027C-0.709717 49.0527 1.79126 57.8091 7.16333 64.7722C12.5356 71.7354 20.3706 76.3763 29.0586 77.7416C30.8513 78.0249 32.6633 78.1674 34.4785 78.1677C41.6436 78.1499 48.6245 75.896 54.4473 71.7205C60.27 67.5449 64.644 61.6561 66.9595 54.8754C69.2751 48.0947 69.4163 40.7604 67.3635 33.8955C65.3108 27.0306 61.1665 20.9778 55.5088 16.5812Z" fill="#FF6875" fill-opacity="1.000000" fill-rule="nonzero"/>
	<path id="Path 2" d="M37.7751 61.3049L37.7751 57.7722C41.9641 57.3046 46.0388 54.6594 46.0388 49.6356C46.0388 42.8103 39.6924 42.0283 35.0571 41.4575C32.0938 41.103 29.8247 40.6919 29.8247 38.8966C29.8247 36.3998 33.3447 36.1307 34.8535 36.1307C37.0989 36.1307 39.4951 37.1869 40.3096 38.5333L40.5461 38.9255L45.1978 36.7708L44.9675 36.3018C44.2773 34.9368 43.2571 33.7657 41.9995 32.8948C40.7419 32.0239 39.2869 31.4807 37.7664 31.3145L37.7664 28.2029L32.3228 28.2029L32.3228 31.2993C27.2473 32.0537 24.2327 34.8647 24.2327 38.8954C24.2327 45.4668 30.1992 46.1331 34.553 46.6222C38.4326 47.0797 40.238 48.0377 40.238 49.6394C40.238 52.6907 36.0125 52.9282 34.7175 52.9282C31.835 52.9282 29.0603 51.49 28.2505 49.5791L28.0508 49.1077L22.9993 51.2487L23.2004 51.7201C24.6978 55.2264 27.9299 57.4227 32.3289 57.942L32.3289 61.3049L37.7751 61.3049Z" fill="#FF6875" fill-opacity="1.000000" fill-rule="nonzero"/>
</svg>
